<svg width="123" height="69" viewBox="0 0 123 69" fill="none" xmlns="http://www.w3.org/2000/svg">
<path d="M30.736 68.44C21.008 68.44 13.52 65.464 8.272 59.512C3.024 53.56 0.4 45.144 0.4 34.264C0.4 27.352 1.648 21.4 4.144 16.408C6.704 11.352 10.384 7.512 15.184 4.888C19.984 2.2 25.68 0.855999 32.272 0.855999C39.76 0.855999 47.472 2.552 55.408 5.944C54.832 11.704 53.904 18.072 52.624 25.048L45.328 25.528L38.704 15.832C35.888 15 32.784 14.584 29.392 14.584C26.832 14.584 24.4 14.808 22.096 15.256C21.072 17.24 20.24 19.864 19.6 23.128C18.96 26.392 18.64 29.688 18.64 33.016C18.64 40.12 19.92 45.4 22.48 48.856C25.104 52.248 29.232 54.008 34.864 54.136C37.104 54.136 39.92 53.816 43.312 53.176C46.768 52.472 50.128 51.576 53.392 50.488L56.368 61.048C53.04 63.224 49.008 65.016 44.272 66.424C39.6 67.768 35.088 68.44 30.736 68.44ZM62.302 57.208L69.31 55.288V18.712C69.31 17.048 69.182 15.96 68.926 15.448C68.67 14.872 67.998 14.36 66.91 13.912L61.918 11.128L62.494 3.256C72.094 1.848 81.342 1.144 90.238 1.144C97.15 1.144 102.718 1.848 106.942 3.256C111.166 4.6 114.238 6.744 116.158 9.688C118.142 12.568 119.134 16.408 119.134 21.208C119.134 25.176 118.11 28.664 116.062 31.672C114.014 34.616 111.102 36.888 107.326 38.488L122.686 63.256L122.59 67H105.118L90.91 41.368L86.686 41.272V52.024C86.686 53.56 86.782 54.552 86.974 55C87.23 55.384 87.806 55.832 88.702 56.344L92.83 58.744L92.446 67H62.782L62.302 57.208ZM92.83 30.52C96.222 30.52 98.718 30.2 100.318 29.56C100.958 27.256 101.278 24.504 101.278 21.304C101.278 18.104 100.574 15.832 99.166 14.488C97.822 13.144 95.55 12.472 92.35 12.472C90.558 12.472 88.734 12.568 86.878 12.76V29.944C88.542 30.328 90.526 30.52 92.83 30.52Z" fill="white"/>
</svg>
