<svg xmlns="http://www.w3.org/2000/svg" aria-hidden="true" fill="currentColor" width="155" height="765" viewBox="0 0 155 765">
  <path id="katakana-profile" d="M32.544 651.088l1.152.288c.576.144 1.008.288 1.44.432l3.744.864c46.224 11.808 75.312 36.864 95.76 82.656-9.648 4.752-15.12 8.784-24.192 18.144-11.952-38.304-37.44-64.224-70.992-72.432v60.192c.144 15.264.288 18.72.864 23.76H14.4c.864-5.472 1.152-9.504 1.152-24.192v-73.44C6.624 666.928 0 660.016 0 651.232c0-9.072 7.2-16.272 16.272-16.272s16.128 7.056 16.272 16.128zm-24.48.144c0 4.464 3.744 8.208 8.208 8.208 4.32 0 8.064-3.744 8.064-8.208s-3.744-8.208-8.064-8.208c-4.464 0-8.208 3.744-8.208 8.208zm111.024-104.528v61.776h9.936v26.208c-7.92-.864-12.816-1.152-23.472-1.152H31.536c-6.192 0-10.656.144-16.56.576.432-5.04.576-7.92.576-17.424v-77.616c0-8.928 0-11.088-.576-17.856 5.04.288 10.224.432 16.992.432h73.008c11.088 0 18-.288 23.76-1.008v26.064h-9.648zm-23.04 0H38.592v61.776h57.456v-61.776zM12.96 403.44l12.528-12.96c2.448 1.584 3.168 1.872 8.064 3.024 26.784 6.48 44.784 15.12 61.2 28.944 15.984 13.392 27.504 29.52 39.168 54.864-10.944 5.616-14.832 8.64-24.192 18.144-6.768-20.736-15.552-35.856-28.224-48.528-12.24-12.096-25.344-19.44-42.624-23.904v59.76c0 13.968.144 16.56.864 24.192H13.68c1.008-6.192 1.152-10.512 1.152-24.624v-68.4c0-4.752-.432-7.344-1.872-10.512zm13.968-106.112l13.824-20.16c1.584 1.872 1.584 1.872 5.04 5.04 8.64 7.776 16.272 16.56 23.472 26.64h44.352c9.36 0 14.688-.144 19.872-.864v25.632c-5.616-.72-9.36-1.008-19.872-1.008H83.52c7.344 12.24 9.36 16.848 16.992 37.584-7.92 3.168-13.392 6.48-20.448 12.24-6.192-22.176-15.12-41.328-27.36-58.32-8.784-12.24-18.432-22.32-25.776-26.784zm55.584-35.264H54.72c1.008-6.768 1.296-14.544 1.296-29.52v-68.832c0-14.4-.288-19.872-1.296-29.52h27.792c-.72 6.912-.864 13.248-.864 29.664V232.4c0 16.128.144 20.88.864 29.664zM8.352 113.76l1.584-27.216c4.896.576 4.896.576 33.408 1.584 30.096.864 46.08 3.744 61.776 10.656 10.656 4.752 18.432 10.224 28.8 20.016-9.648 7.344-13.68 11.376-20.16 20.592-7.344-8.208-13.392-12.672-22.896-17.136-14.112-6.768-31.968-9.072-69.264-9.072-6.336 0-9.504.144-13.248.576zm-.72-40.896V45.792c5.904.864 8.208 1.008 16.704 1.152l75.456.72c-4.896-7.776-9.072-12.384-15.84-17.28-7.344-5.184-14.832-8.64-24.624-11.232C68.256 11.952 72 8.208 78.336 0c16.128 6.48 27.216 13.968 36.576 24.912 7.344 8.64 11.088 15.696 16.416 30.24 1.44 4.032 1.872 5.184 3.024 7.056l-12.96 12.384c-3.744-1.296-6.192-1.584-12.096-1.584l-85.248-.72h-5.184c-4.608 0-7.776.144-11.232.576z" />
  <path d="M40.648 99.92C27.6773 99.92 17.6933 95.952 10.696 88.016C3.69867 80.08 0.2 68.8587 0.2 54.352C0.2 45.136 1.864 37.2 5.192 30.544C8.60533 23.8027 13.512 18.6827 19.912 15.184C26.312 11.6 33.9067 9.808 42.696 9.808C52.68 9.808 62.9627 12.0693 73.544 16.592C72.776 24.272 71.5387 32.7627 69.832 42.064L60.104 42.704L51.272 29.776C47.5173 28.6667 43.3787 28.112 38.856 28.112C35.4427 28.112 32.2 28.4107 29.128 29.008C27.7627 31.6533 26.6533 35.152 25.8 39.504C24.9467 43.856 24.52 48.2507 24.52 52.688C24.52 62.16 26.2267 69.2 29.64 73.808C33.1387 78.3307 38.6427 80.6773 46.152 80.848C49.1387 80.848 52.8933 80.4213 57.416 79.568C62.024 78.6293 66.504 77.4347 70.856 75.984L74.824 90.064C70.3867 92.9653 65.0107 95.3547 58.696 97.232C52.4667 99.024 46.4507 99.92 40.648 99.92ZM102.51 99.664C96.7073 99.664 92.0567 98.0853 88.558 94.928C85.0593 91.6853 83.31 87.5467 83.31 82.512C83.31 75.7707 86.6807 70.48 93.422 66.64C100.249 62.8 110.147 60.624 123.118 60.112C123.118 56.1013 122.777 53.1573 122.094 51.28C121.497 49.3173 120.345 47.9947 118.638 47.312C117.017 46.544 114.499 46.16 111.086 46.16C107.587 46.16 105.113 46.288 103.662 46.544L98.414 56.912L88.942 56.272C87.4913 49.4453 86.4673 42.3627 85.87 35.024C90.6487 33.4027 95.854 32.1227 101.486 31.184C107.203 30.2453 112.537 29.776 117.486 29.776C126.531 29.776 133.017 31.568 136.942 35.152C140.867 38.6507 142.83 44.496 142.83 52.688V79.44C142.83 80.976 142.958 82.0427 143.214 82.64C143.555 83.2373 144.238 83.8347 145.262 84.432L150.382 87.376L149.87 95.312C139.971 97.616 132.163 98.896 126.446 99.152C126.275 98.64 126.019 97.744 125.678 96.464C125.337 95.0987 125.038 93.8187 124.782 92.624C121.454 94.7573 117.785 96.464 113.774 97.744C109.849 99.024 106.094 99.664 102.51 99.664ZM111.086 85.2C114.499 85.2 118.638 84.048 123.502 81.744L122.99 72.016C120.942 71.8453 119.577 71.76 118.894 71.76C116.59 71.76 113.902 72.016 110.83 72.528C107.758 72.9547 105.326 73.4667 103.534 74.064C103.278 75.1733 103.15 76.1973 103.15 77.136C103.15 79.696 103.833 81.7013 105.198 83.152C106.649 84.5173 108.611 85.2 111.086 85.2ZM155.081 85.84L162.889 83.536V52.432C162.889 50.5547 162.761 49.36 162.505 48.848C162.249 48.2507 161.566 47.6107 160.457 46.928L154.825 43.856L155.209 34.256C156.66 33.9147 157.897 33.7013 158.921 33.616C169.246 31.4827 176.884 30.3307 181.833 30.16C182.601 32.3787 183.326 35.152 184.009 38.48C189.129 34.4693 193.481 31.696 197.065 30.16H204.361C204.276 33.4027 204.062 36.944 203.721 40.784C203.38 44.5387 202.953 47.568 202.441 49.872C199.369 49.7013 197.108 49.616 195.657 49.616C192.073 49.616 188.361 49.8293 184.521 50.256V79.312C184.521 81.104 184.649 82.2987 184.905 82.896C185.161 83.4933 185.844 84.1333 186.953 84.816L194.633 88.912L194.121 98H155.721L155.081 85.84ZM206.825 86.224L215.785 83.536V22.224C215.785 20.3467 215.614 19.152 215.273 18.64C215.017 18.0427 214.292 17.4027 213.097 16.72L207.465 13.776L208.105 4.048C209.812 3.70666 211.134 3.49333 212.073 3.408C223.337 1.36 231.188 0.250664 235.625 0.0799942C236.478 2.04266 237.033 4.26133 237.289 6.73599V79.312C237.289 81.104 237.417 82.2987 237.673 82.896C237.929 83.4933 238.654 84.1333 239.849 84.816L246.121 88.4L245.609 98H207.209L206.825 86.224ZM282.176 99.664C271.339 99.664 263.232 96.8907 257.856 91.344C252.565 85.7973 249.92 77.3067 249.92 65.872C249.92 58.5333 251.243 52.1333 253.888 46.672C256.619 41.2107 260.501 37.0293 265.536 34.128C270.571 31.2267 276.501 29.776 283.328 29.776C305.429 29.776 316.48 41.2107 316.48 64.08C316.48 75.2587 313.451 84.0053 307.392 90.32C301.419 96.5493 293.013 99.664 282.176 99.664ZM284.224 84.688C285.931 84.688 287.424 84.56 288.704 84.304C289.984 83.9627 291.349 83.4507 292.8 82.768C293.312 80.8053 293.739 78.288 294.08 75.216C294.421 72.144 294.592 69.2 294.592 66.384C294.592 59.472 293.483 54.224 291.264 50.64C289.131 47.056 285.931 45.264 281.664 45.264C278.848 45.264 275.989 45.648 273.088 46.416C272.491 47.696 272.021 49.7867 271.68 52.688C271.339 55.504 271.168 58.7467 271.168 62.416C271.168 69.584 272.277 75.088 274.496 78.928C276.8 82.768 280.043 84.688 284.224 84.688ZM347.258 100.176C340.517 100.176 332.709 98.9813 323.834 96.592C324.346 88.2293 324.901 82.0427 325.498 78.032L332.794 76.624L340.858 85.2C343.674 86.0533 346.831 86.48 350.33 86.48C352.293 86.48 353.829 86.352 354.938 86.096C355.194 85.4133 355.322 84.4747 355.322 83.28C355.322 82.256 355.066 81.4027 354.554 80.72C354.127 80.0373 353.103 79.2267 351.482 78.288C349.861 77.3493 347.045 75.8987 343.034 73.936C337.999 71.2907 334.159 68.944 331.514 66.896C328.869 64.7627 326.949 62.5867 325.754 60.368C324.645 58.1493 324.09 55.504 324.09 52.432C324.09 45.6053 326.607 40.1867 331.642 36.176C336.762 32.1653 343.674 30.16 352.378 30.16C355.962 30.16 359.717 30.5867 363.642 31.44C367.653 32.208 371.237 33.2747 374.394 34.64C374.394 40.1867 374.01 46.3733 373.242 53.2L366.586 54.224L358.01 45.008C355.791 44.3253 352.549 43.984 348.282 43.984C347.599 43.984 346.234 44.0693 344.186 44.24C343.93 44.752 343.802 45.5627 343.802 46.672C343.802 47.8667 344.143 48.9333 344.826 49.872C345.509 50.7253 346.703 51.7067 348.41 52.816C350.202 53.84 353.018 55.3333 356.858 57.296C362.49 60.0267 366.714 62.416 369.53 64.464C372.431 66.4267 374.437 68.432 375.546 70.48C376.741 72.528 377.338 75.0027 377.338 77.904C377.338 84.9013 374.65 90.3627 369.274 94.288C363.983 98.2133 356.645 100.176 347.258 100.176ZM410.361 84.944L419.705 82.384V33.616C419.705 31.3973 419.534 29.9467 419.193 29.264C418.852 28.496 417.956 27.8133 416.505 27.216L409.849 23.504L410.617 13.008C423.417 11.1307 435.748 10.192 447.609 10.192C456.825 10.192 464.249 11.1307 469.881 13.008C475.513 14.8 479.609 17.6587 482.169 21.584C484.814 25.424 486.137 30.544 486.137 36.944C486.137 42.2347 484.772 46.8853 482.041 50.896C479.31 54.8213 475.428 57.8507 470.393 59.984L490.873 93.008L490.745 98H467.449L448.505 63.824L442.873 63.696V78.032C442.873 80.08 443.001 81.4027 443.257 82C443.598 82.512 444.366 83.1093 445.561 83.792L451.065 86.992L450.553 98H411.001L410.361 84.944ZM451.065 49.36C455.588 49.36 458.916 48.9333 461.049 48.08C461.902 45.008 462.329 41.3387 462.329 37.072C462.329 32.8053 461.39 29.776 459.513 27.984C457.721 26.192 454.692 25.296 450.425 25.296C448.036 25.296 445.604 25.424 443.129 25.68V48.592C445.348 49.104 447.993 49.36 451.065 49.36ZM525.027 99.536C515.043 99.536 507.32 96.5067 501.859 90.448C496.483 84.3893 493.795 76.0267 493.795 65.36C493.795 57.936 495.118 51.5787 497.763 46.288C500.408 40.912 504.163 36.816 509.027 34C513.891 31.184 519.566 29.776 526.051 29.776C535.694 29.776 543.075 32.848 548.195 38.992C553.4 45.136 555.875 53.8827 555.619 65.232L516.707 72.4C517.902 75.984 519.566 78.6293 521.699 80.336C523.918 81.9573 526.819 82.768 530.403 82.768C532.878 82.768 535.822 82.4267 539.235 81.744C542.648 80.976 546.104 79.952 549.603 78.672L552.547 91.344C549.39 93.7333 545.294 95.696 540.259 97.232C535.224 98.768 530.147 99.536 525.027 99.536ZM534.627 54.48C534.456 51.2373 533.518 48.8907 531.811 47.44C530.19 45.904 527.886 45.136 524.899 45.136C522.424 45.136 520.078 45.4773 517.859 46.16C516.067 50.3413 515.256 54.864 515.427 59.728L534.627 54.48ZM561.953 85.712L569.889 83.408V52.432C569.889 50.5547 569.761 49.36 569.505 48.848C569.249 48.2507 568.566 47.6107 567.457 46.928L561.825 43.856L562.209 34.256L565.025 33.744C576.204 31.5253 584.268 30.3307 589.217 30.16C589.9 31.952 590.454 33.9147 590.881 36.048C596.086 33.6587 600.31 32.0373 603.553 31.184C606.881 30.2453 609.996 29.776 612.897 29.776C626.465 29.776 633.249 37.8827 633.249 54.096V79.184C633.249 80.976 633.377 82.1707 633.633 82.768C633.889 83.3653 634.614 84.0053 635.809 84.688L641.953 88.272L641.441 97.872H606.113L605.473 85.712L611.745 83.92V59.728C611.745 55.888 611.617 53.2 611.361 51.664C611.105 50.128 610.38 48.9333 609.185 48.08C608.076 47.2267 606.07 46.8 603.169 46.8C600.097 46.8 596.214 47.2693 591.521 48.208V79.184C591.521 80.976 591.649 82.1707 591.905 82.768C592.161 83.3653 592.844 84.0053 593.953 84.688L600.225 88.272L599.713 97.872H562.593L561.953 85.712ZM664.885 99.664C659.082 99.664 654.432 98.0853 650.933 94.928C647.434 91.6853 645.685 87.5467 645.685 82.512C645.685 75.7707 649.056 70.48 655.797 66.64C662.624 62.8 672.522 60.624 685.493 60.112C685.493 56.1013 685.152 53.1573 684.469 51.28C683.872 49.3173 682.72 47.9947 681.013 47.312C679.392 46.544 676.874 46.16 673.461 46.16C669.962 46.16 667.488 46.288 666.037 46.544L660.789 56.912L651.317 56.272C649.866 49.4453 648.842 42.3627 648.245 35.024C653.024 33.4027 658.229 32.1227 663.861 31.184C669.578 30.2453 674.912 29.776 679.861 29.776C688.906 29.776 695.392 31.568 699.317 35.152C703.242 38.6507 705.205 44.496 705.205 52.688V79.44C705.205 80.976 705.333 82.0427 705.589 82.64C705.93 83.2373 706.613 83.8347 707.637 84.432L712.757 87.376L712.245 95.312C702.346 97.616 694.538 98.896 688.821 99.152C688.65 98.64 688.394 97.744 688.053 96.464C687.712 95.0987 687.413 93.8187 687.157 92.624C683.829 94.7573 680.16 96.464 676.149 97.744C672.224 99.024 668.469 99.664 664.885 99.664ZM673.461 85.2C676.874 85.2 681.013 84.048 685.877 81.744L685.365 72.016C683.317 71.8453 681.952 71.76 681.269 71.76C678.965 71.76 676.277 72.016 673.205 72.528C670.133 72.9547 667.701 73.4667 665.909 74.064C665.653 75.1733 665.525 76.1973 665.525 77.136C665.525 79.696 666.208 81.7013 667.573 83.152C669.024 84.5173 670.986 85.2 673.461 85.2ZM717.328 85.712L725.264 83.408V52.432C725.264 50.5547 725.136 49.36 724.88 48.848C724.624 48.2507 723.941 47.6107 722.832 46.928L717.2 43.856L717.584 34.256L720.4 33.744C731.579 31.5253 739.643 30.3307 744.592 30.16C745.275 31.952 745.829 33.9147 746.256 36.048C751.461 33.6587 755.685 32.0373 758.928 31.184C762.256 30.2453 765.371 29.776 768.272 29.776C781.84 29.776 788.624 37.8827 788.624 54.096V79.184C788.624 80.976 788.752 82.1707 789.008 82.768C789.264 83.3653 789.989 84.0053 791.184 84.688L797.328 88.272L796.816 97.872H761.488L760.848 85.712L767.12 83.92V59.728C767.12 55.888 766.992 53.2 766.736 51.664C766.48 50.128 765.755 48.9333 764.56 48.08C763.451 47.2267 761.445 46.8 758.544 46.8C755.472 46.8 751.589 47.2693 746.896 48.208V79.184C746.896 80.976 747.024 82.1707 747.28 82.768C747.536 83.3653 748.219 84.0053 749.328 84.688L755.6 88.272L755.088 97.872H717.968L717.328 85.712Z" fill="white"/>
</svg>
